ply
format ascii 1.0
comment VCGLIB generated
element vertex 78
property float x
property float y
property float z
element face 152
property list uchar int vertex_indices
end_header
1.636 -29.674 -0.001 
1.303 -28.935 -0.001 
0.602 -28.331 -0.001 
1.457 -25.773 -0.001 
2.877 -26.407 -0.001 
1.764 -32.285 -0.001 
3.919 -27.478 -0.001 
4.654 -29.003 -0.001 
-0.326 -28.12 -0.001 
-1.352 -28.353 -0.001 
-0.447 -34.435 -0.001 
-0.447 -34.435 4.001 
-2.107 -29.054 -0.001 
-0.409 -25.562 -0.001 
-4.262 -35.754 -0.001 
-4.262 -35.754 4.001 
-2.458 -29.945 -0.001 
-3.197 -36.477 -0.001 
-3.197 -36.477 4.001 
-2.778 -25.93 -0.001 
-2.575 -31.232 -0.001 
-1.889 -36.869 -0.001 
-1.889 -36.869 4.001 
-0.251 -37.001 -0.001 
-0.251 -37.001 4.001 
-6 -31.255 -0.001 
-5.635 -28.828 -0.001 
-5.179 -27.852 -0.001 
-4.541 -27.036 -0.001 
-3.735 -26.391 -0.001 
0.414 -34.298 -0.001 
1.035 -33.884 -0.001 
1.468 -33.209 -0.001 
4.759 -33.19 -0.001 
4.371 -34.347 -0.001 
3.809 -35.296 -0.001 
3.081 -36.037 -0.001 
2.198 -36.571 -0.001 
1.104 -36.893 -0.001 
-2.435 -32.782 -0.001 
-2.016 -33.753 -0.001 
-5.793 -33.129 -0.001 
-1.345 -34.265 -0.001 
-5.171 -34.633 -0.001 
1.636 -29.674 4.001 
1.303 -28.935 4.001 
0.602 -28.331 4.001 
1.457 -25.773 4.001 
2.877 -26.407 4.001 
1.764 -32.285 4.001 
4.654 -29.003 4.001 
3.919 -27.478 4.001 
-0.326 -28.12 4.001 
-1.352 -28.353 4.001 
-0.409 -25.562 4.001 
-2.107 -29.054 4.001 
-2.458 -29.945 4.001 
-2.778 -25.93 4.001 
-2.575 -31.232 4.001 
-3.735 -26.391 4.001 
-4.541 -27.036 4.001 
-5.179 -27.852 4.001 
-5.635 -28.828 4.001 
-6 -31.255 4.001 
0.414 -34.298 4.001 
1.035 -33.884 4.001 
1.468 -33.209 4.001 
4.759 -33.19 4.001 
1.104 -36.893 4.001 
2.198 -36.571 4.001 
3.081 -36.037 4.001 
3.809 -35.296 4.001 
4.371 -34.347 4.001 
-2.435 -32.782 4.001 
-2.016 -33.753 4.001 
-5.793 -33.129 4.001 
-1.345 -34.265 4.001 
-5.171 -34.633 4.001 
3 2 4 1 
3 6 1 4 
3 7 0 6 
3 0 1 6 
3 13 3 8 
3 19 13 9 
3 12 29 9 
3 8 9 13 
3 2 8 3 
3 4 2 3 
3 25 26 16 
3 17 18 15 
3 17 15 14 
3 20 25 16 
3 21 22 18 
3 21 18 17 
3 23 24 22 
3 23 22 21 
3 27 16 26 
3 28 12 27 
3 29 12 28 
3 19 9 29 
3 16 27 12 
3 31 37 30 
3 23 30 38 
3 33 34 32 
3 37 31 36 
3 35 36 31 
3 31 32 35 
3 38 30 37 
3 34 35 32 
3 33 32 5 
3 14 43 40 
3 25 20 41 
3 39 40 43 
3 42 17 40 
3 20 39 41 
3 43 41 39 
3 23 21 10 
3 14 40 17 
3 21 17 42 
3 42 10 21 
3 23 10 30 
3 44 51 45 
3 52 46 47 
3 51 48 45 
3 47 46 48 
3 46 45 48 
3 50 51 44 
3 47 54 52 
3 53 52 54 
3 57 59 53 
3 54 57 53 
3 60 61 55 
3 59 60 55 
3 55 53 59 
3 56 55 61 
3 62 56 61 
3 58 56 63 
3 62 63 56 
3 68 69 64 
3 49 66 67 
3 65 64 69 
3 69 70 65 
3 65 71 66 
3 71 65 70 
3 72 66 71 
3 67 66 72 
3 73 58 75 
3 63 75 58 
3 74 73 77 
3 75 77 73 
3 76 74 18 
3 15 18 74 
3 77 15 74 
3 11 24 64 
3 22 24 11 
3 18 22 76 
3 11 76 22 
3 68 64 24 
3 1 0 44 
3 1 44 45 
3 1 45 46 
3 1 46 2 
3 2 46 52 
3 6 4 48 
3 6 48 51 
3 4 3 47 
3 4 47 48 
3 33 5 49 
3 33 49 67 
3 50 44 7 
3 0 7 44 
3 6 51 50 
3 6 50 7 
3 52 8 2 
3 8 52 53 
3 8 53 9 
3 9 53 55 
3 9 55 12 
3 54 47 13 
3 3 13 47 
3 19 54 13 
3 16 12 55 
3 16 55 56 
3 20 16 56 
3 20 56 58 
3 57 54 19 
3 59 57 19 
3 19 29 59 
3 29 28 60 
3 29 60 59 
3 28 27 61 
3 28 61 60 
3 27 26 62 
3 27 62 61 
3 26 25 63 
3 26 63 62 
3 63 25 75 
3 30 10 11 
3 30 11 64 
3 31 30 64 
3 31 64 65 
3 32 31 65 
3 32 65 66 
3 68 24 23 
3 68 23 38 
3 66 49 32 
3 5 32 49 
3 38 37 69 
3 38 69 68 
3 37 36 70 
3 37 70 69 
3 36 35 71 
3 36 71 70 
3 35 34 72 
3 35 72 71 
3 34 33 67 
3 34 67 72 
3 58 73 39 
3 58 39 20 
3 39 73 74 
3 39 74 40 
3 42 40 74 
3 42 74 76 
3 25 41 75 
3 10 42 76 
3 10 76 11 
3 77 75 43 
3 41 43 75 
3 43 14 15 
3 43 15 77 
