ply
format ascii 1.0
comment VCGLIB generated
element vertex 495
property float x
property float y
property float z
element face 893
property list uchar int vertex_indices
end_header
0.2323 0.458076 0.690969 
0.2333 0.458393 0.687923 
0.232 0.488787 0.705789 
0.2313 0.414231 0.676125 
0.2308 0.458482 0.69182 
0.2306 0.488803 0.706258 
0.2336 0.521049 0.722829 
0.2352 0.520456 0.722257 
0.2351 0.556688 0.744303 
0.2368 0.556548 0.743535 
0.2344 0.588526 0.763226 
0.2361 0.588829 0.762276 
0.2291 0.616277 0.778281 
0.2307 0.616755 0.777507 
0.2191 0.644919 0.792872 
0.2208 0.645689 0.792073 
0.2045 0.676465 0.809284 
0.2057 0.677728 0.80894 
0.1879 0.687206 0.815255 
0.1883 0.688827 0.81506 
0.1885 0.690313 0.810899 
0.2062 0.679334 0.805498 
0.2078 0.686902 0.772965 
0.2216 0.647182 0.78888 
0.2317 0.617718 0.774136 
0.237 0.589463 0.758834 
0.2377 0.591209 0.736602 
0.2371 0.556069 0.724752 
0.2376 0.556954 0.740591 
0.2331 0.521976 0.703515 
0.2358 0.520961 0.719386 
0.2327 0.489459 0.703567 
0.2313 0.492716 0.680913 
0.2334 0.45716 0.660682 
0.2311 0.496103 0.662852 
0.2337 0.461437 0.641348 
0.227 0.468051 0.615003 
0.2339 0.423993 0.597839 
0.2357 0.418794 0.62725 
0.2411 0.379331 0.594617 
0.2382 0.371078 0.622039 
0.2323 0.332769 0.616446 
0.2349 0.367742 0.63441 
0.2341 0.416078 0.653723 
0.2327 0.414429 0.673331 
0.2235 0.370599 0.66545 
0.2299 0.416448 0.677351 
0.2293 0.416318 0.677975 
0.2304 0.458274 0.69249 
0.2244 0.458399 0.664223 
0.2242 0.488912 0.678635 
0.2302 0.488642 0.706835 
0.2272 0.5212 0.695181 
0.2332 0.52082 0.723324 
0.2287 0.556579 0.716778 
0.2347 0.556428 0.745029 
0.2281 0.588009 0.735514 
0.234 0.588357 0.764005 
0.2231 0.614994 0.750127 
0.2287 0.615945 0.77893 
0.2133 0.643241 0.764516 
0.2187 0.644574 0.793541 
0.1994 0.673272 0.780167 
0.2042 0.675928 0.80983 
0.1856 0.682144 0.785325 
0.1879 0.686577 0.815754 
0.1733 0.683465 0.785315 
0.1721 0.688236 0.815785 
0.1629 0.679298 0.783187 
0.1589 0.682985 0.813018 
0.1458 0.660405 0.773398 
0.1406 0.662747 0.802508 
0.1263 0.622144 0.754859 
0.1208 0.623695 0.783522 
0.1154 0.580057 0.736076 
0.1095 0.581022 0.764402 
0.1098 0.541161 0.70818 
0.1038 0.541676 0.736298 
0.1082 0.517407 0.689758 
0.1022 0.517844 0.71784 
0.11 0.419393 0.640404 
0.1049 0.465226 0.658342 
0.1065 0.441648 0.646466 
0.1005 0.441216 0.67413 
0.0989 0.465262 0.686227 
0.1001 0.496457 0.702716 
0.1061 0.496083 0.674666 
0.0982 0.465501 0.685655 
0.1042 0.41831 0.667769 
0.1203 0.389306 0.634002 
0.1148 0.387349 0.660955 
0.1335 0.366863 0.630245 
0.1289 0.363548 0.656589 
0.1652 0.343447 0.627049 
0.1634 0.338275 0.65262 
0.1921 0.343879 0.631966 
0.1955 0.338982 0.657862 
0.2157 0.37445 0.638987 
0.2214 0.372441 0.666341 
0.2233 0.416838 0.649899 
0.2222 0.372269 0.665872 
0.1962 0.335761 0.657661 
0.196 0.338181 0.657538 
0.1629 0.334669 0.652528 
0.1631 0.337395 0.652321 
0.1282 0.363038 0.656393 
0.1277 0.361191 0.656986 
0.1265 0.357949 0.655192 
0.1124 0.386865 0.661455 
0.114 0.387074 0.660708 
0.1003 0.418555 0.667192 
0.1033 0.418227 0.667341 
0.0977 0.440977 0.672903 
0.0997 0.441274 0.673558 
0.0964 0.464305 0.684506 
0.0979 0.496088 0.701696 
0.0996 0.49677 0.70217 
0.1001 0.51749 0.716144 
0.1018 0.518156 0.717216 
0.1018 0.541364 0.734824 
0.1034 0.541973 0.7357 
0.1077 0.580913 0.763226 
0.1091 0.581321 0.76383 
0.1189 0.624411 0.783316 
0.1203 0.623908 0.783491 
0.139 0.664195 0.801613 
0.1403 0.663185 0.801963 
0.1576 0.684792 0.812345 
0.1586 0.683491 0.812519 
0.1384 0.665853 0.798674 
0.1569 0.686295 0.808734 
0.1364 0.67212 0.773388 
0.1516 0.693576 0.776858 
0.1492 0.698168 0.733607 
0.1703 0.705224 0.735525 
0.1706 0.700476 0.775914 
0.1895 0.698001 0.775208 
0.1716 0.691932 0.810899 
0.1717 0.69041 0.815034 
0.209 0.690591 0.735978 
0.2236 0.654083 0.759381 
0.2341 0.62063 0.74605 
0.239 0.589533 0.713118 
0.2357 0.554888 0.702593 
0.2315 0.587358 0.687799 
0.2255 0.553306 0.675573 
0.2209 0.586822 0.671207 
0.217 0.553098 0.660481 
0.2187 0.586885 0.669439 
0.2148 0.55302 0.658311 
0.2159 0.553212 0.657264 
0.2137 0.526617 0.639502 
0.2126 0.526092 0.640451 
0.2145 0.503097 0.619266 
0.2133 0.502488 0.62024 
0.2207 0.473151 0.596313 
0.2194 0.472505 0.597267 
0.2273 0.431397 0.577205 
0.226 0.43082 0.578185 
0.2351 0.385924 0.572216 
0.2338 0.385497 0.573195 
0.237 0.34557 0.570025 
0.2356 0.34544 0.570994 
0.2315 0.307647 0.5685 
0.2302 0.307844 0.569546 
0.2185 0.274968 0.567206 
0.2174 0.275359 0.568299 
0.2045 0.25008 0.566407 
0.2034 0.2506 0.567582 
0.1916 0.234396 0.566804 
0.1906 0.235016 0.567927 
0.1916 0.234188 0.56885 
0.2046 0.249877 0.568577 
0.1945 0.231269 0.576633 
0.208 0.247171 0.578401 
0.2044 0.246037 0.594024 
0.2159 0.270873 0.601406 
0.222 0.272221 0.581076 
0.2256 0.302787 0.609586 
0.2325 0.30607 0.584741 
0.2407 0.339633 0.589159 
0.2352 0.385065 0.574963 
0.2369 0.345143 0.572644 
0.2314 0.307465 0.570917 
0.2186 0.274776 0.569525 
0.2276 0.430201 0.580149 
0.2211 0.472016 0.599308 
0.2152 0.502244 0.622188 
0.2147 0.525811 0.642621 
0.2225 0.525212 0.657687 
0.2317 0.523152 0.682934 
0.2234 0.499944 0.6386 
0.2126 0.30121 0.626956 
0.2176 0.324303 0.635734 
0.1974 0.31783 0.645791 
0.2294 0.365906 0.653522 
0.2256 0.370058 0.66345 
0.1971 0.333092 0.656362 
0.1623 0.331791 0.651528 
0.1637 0.315483 0.642296 
0.1253 0.333264 0.638775 
0.1298 0.308318 0.629497 
0.0993 0.312491 0.618673 
0.0958 0.344727 0.62775 
0.084 0.35222 0.609215 
0.0849 0.398225 0.616699 
0.0947 0.38953 0.639677 
0.0871 0.428421 0.626054 
0.0923 0.423098 0.648131 
0.0931 0.442861 0.655167 
0.0961 0.441367 0.670563 
0.0984 0.418727 0.66497 
0.1097 0.386642 0.659337 
0.0951 0.464804 0.682037 
0.0969 0.49666 0.699897 
0.0991 0.518312 0.714319 
0.1009 0.542405 0.732205 
0.107 0.581961 0.760506 
0.1086 0.587254 0.744086 
0.1184 0.625915 0.780528 
0.1188 0.630643 0.759154 
0.1194 0.641256 0.728535 
0.1338 0.677562 0.732133 
0.1227 0.649442 0.697402 
0.1346 0.679835 0.698804 
0.1282 0.648578 0.680341 
0.138 0.677489 0.682465 
0.1294 0.64824 0.679016 
0.1391 0.676901 0.681238 
0.1387 0.676693 0.678867 
0.1508 0.691767 0.679264 
0.1512 0.69184 0.681738 
0.1692 0.697871 0.679619 
0.1694 0.697861 0.682212 
0.1856 0.69554 0.679192 
0.1856 0.695561 0.681841 
0.2061 0.684243 0.679717 
0.206 0.684321 0.682258 
0.2218 0.659802 0.677893 
0.2217 0.65988 0.680341 
0.2262 0.622451 0.674728 
0.2278 0.622378 0.676248 
0.2229 0.660093 0.681738 
0.2277 0.659901 0.7005 
0.2067 0.685315 0.683588 
0.186 0.696825 0.68316 
0.2087 0.690133 0.701593 
0.1875 0.702814 0.701644 
0.1893 0.702507 0.737622 
0.1691 0.704245 0.700072 
0.1494 0.69683 0.699098 
0.1506 0.692829 0.682965 
0.1693 0.699083 0.683382 
0.2267 0.658381 0.729118 
0.2359 0.622175 0.721901 
0.2356 0.621904 0.694985 
0.2262 0.620661 0.672331 
0.2195 0.585209 0.667965 
0.2193 0.588846 0.666816 
0.2027 0.601038 0.648986 
0.2023 0.59981 0.648754 
0.2191 0.587577 0.666594 
0.2012 0.599795 0.649471 
0.2174 0.587873 0.666682 
0.1404 0.611555 0.652404 
0.1225 0.605269 0.671919 
0.1394 0.611971 0.651801 
0.1209 0.605565 0.672006 
0.1394 0.613267 0.652089 
0.1211 0.606882 0.672161 
0.1417 0.641423 0.655022 
0.1285 0.646153 0.676769 
0.149 0.665396 0.656966 
0.1573 0.677015 0.656563 
0.1698 0.681256 0.655667 
0.181 0.679544 0.655692 
0.1959 0.671151 0.656466 
0.1883 0.656128 0.63124 
0.1964 0.642198 0.630296 
0.2072 0.651726 0.655991 
0.1988 0.621035 0.628745 
0.2105 0.621972 0.652223 
0.1938 0.606726 0.626683 
0.1933 0.605498 0.626652 
0.1922 0.60568 0.627111 
0.1489 0.614109 0.628276 
0.1478 0.61437 0.627951 
0.1479 0.615671 0.628028 
0.1498 0.635179 0.629992 
0.1551 0.652173 0.631518 
0.152 0.629959 0.604174 
0.1557 0.639321 0.604648 
0.1558 0.622472 0.566634 
0.1591 0.630412 0.567257 
0.1608 0.645268 0.604627 
0.1608 0.660307 0.631822 
0.1696 0.663361 0.631595 
0.1688 0.648583 0.604627 
0.1631 0.635262 0.567629 
0.1694 0.637999 0.567881 
0.1761 0.648396 0.604725 
0.1775 0.662185 0.631544 
0.1848 0.643895 0.604777 
0.175 0.637947 0.567933 
0.1821 0.634273 0.567804 
0.1912 0.634414 0.604627 
0.193 0.620525 0.604101 
0.1874 0.626327 0.567407 
0.1889 0.614396 0.566659 
0.1849 0.605061 0.56586 
0.1872 0.608354 0.603447 
0.1867 0.607152 0.60355 
0.1844 0.603916 0.565881 
0.1855 0.607397 0.603772 
0.1832 0.60416 0.565907 
0.1565 0.609374 0.56586 
0.1532 0.613667 0.603761 
0.1554 0.609582 0.565788 
0.152 0.613896 0.603576 
0.1554 0.610831 0.565763 
0.152 0.615197 0.603498 
0.1214 0.604811 0.674578 
0.12 0.60287 0.673058 
0.1161 0.559155 0.660306 
0.115 0.559587 0.659409 
0.1123 0.527705 0.642641 
0.1112 0.528339 0.641971 
0.1087 0.500412 0.618797 
0.1076 0.501078 0.617998 
0.1042 0.470804 0.593973 
0.1031 0.471465 0.592973 
0.1 0.452581 0.583922 
0.0989 0.453164 0.582922 
0.0953 0.434556 0.577406 
0.0942 0.435097 0.576386 
0.0877 0.40718 0.571345 
0.0952 0.436845 0.571345 
0.0999 0.455302 0.577979 
0.1026 0.455937 0.57701 
0.1039 0.47389 0.588205 
0.1082 0.503831 0.613529 
0.1061 0.474233 0.587087 
0.11 0.503732 0.612132 
0.2126 0.505782 0.613606 
0.2117 0.529224 0.636059 
0.1135 0.531149 0.637832 
0.1172 0.561174 0.656414 
0.1118 0.531248 0.639152 
0.1155 0.561424 0.657538 
0.1208 0.604342 0.671578 
0.2137 0.555065 0.654223 
0.2189 0.58638 0.66614 
0.2154 0.554997 0.655342 
0.2134 0.529136 0.63708 
0.2144 0.505772 0.614931 
0.2187 0.475513 0.590004 
0.2205 0.475497 0.591478 
0.227 0.433344 0.572216 
0.2349 0.387323 0.567154 
0.2324 0.388187 0.565835 
0.2343 0.347376 0.56351 
0.2368 0.346538 0.564861 
0.229 0.309057 0.56201 
0.2313 0.308229 0.563309 
0.2166 0.276332 0.560763 
0.2183 0.275562 0.562041 
0.2028 0.251428 0.559943 
0.2041 0.250605 0.561242 
0.1903 0.235515 0.560345 
0.1912 0.234724 0.561639 
0.1819 0.222964 0.567278 
0.1816 0.223131 0.562062 
0.1745 0.215211 0.567752 
0.1744 0.215362 0.562562 
0.1644 0.215325 0.56783 
0.1645 0.215492 0.562634 
0.1521 0.22387 0.561691 
0.1517 0.223667 0.566876 
0.1397 0.23641 0.566108 
0.1403 0.236743 0.560917 
0.1252 0.255283 0.565711 
0.1406 0.23705 0.567226 
0.1261 0.255819 0.566855 
0.1053 0.28369 0.566582 
0.1064 0.28408 0.567726 
0.0903 0.323887 0.566706 
0.0914 0.323981 0.56785 
0.086 0.366254 0.568453 
0.0871 0.366077 0.569525 
0.0889 0.406764 0.572365 
0.0876 0.40654 0.573989 
0.0859 0.365557 0.571144 
0.0834 0.403085 0.591999 
0.0819 0.359557 0.588561 
0.0874 0.316909 0.602952 
0.0857 0.320479 0.585138 
0.102 0.278746 0.596344 
0.1011 0.2809 0.581948 
0.1191 0.249794 0.58936 
0.1203 0.25188 0.57853 
0.135 0.231456 0.585514 
0.136 0.233278 0.576937 
0.1501 0.218947 0.582051 
0.1502 0.220831 0.575834 
0.1637 0.212177 0.581674 
0.164 0.212979 0.575907 
0.1744 0.211917 0.581303 
0.1744 0.212817 0.575639 
0.1831 0.217641 0.584143 
0.1835 0.220253 0.57551 
0.1818 0.222829 0.569175 
0.1743 0.215216 0.569649 
0.1644 0.215351 0.569747 
0.1517 0.223557 0.56885 
0.1395 0.236233 0.568175 
0.1249 0.255039 0.567927 
0.1052 0.283476 0.568974 
0.0901 0.323544 0.569324 
0.1932 0.22911 0.588458 
0.1825 0.216871 0.586365 
0.1917 0.228163 0.593323 
0.1832 0.226133 0.601179 
0.1893 0.244528 0.611684 
0.2002 0.245277 0.60338 
0.1936 0.269968 0.62341 
0.2082 0.270134 0.613952 
0.196 0.30082 0.636482 
0.165 0.303411 0.636507 
0.1693 0.271773 0.62309 
0.1731 0.245235 0.611611 
0.1744 0.226336 0.601406 
0.1754 0.215336 0.591004 
0.1582 0.228163 0.59956 
0.1488 0.246755 0.608766 
0.1381 0.274068 0.618225 
0.1111 0.276243 0.60889 
0.1266 0.248363 0.602601 
0.1411 0.230057 0.595344 
0.1637 0.215773 0.589932 
0.1552 0.216933 0.587911 
0.0877 0.432964 0.599308 
0.0939 0.434582 0.57918 
0.0918 0.450515 0.607447 
0.0901 0.446311 0.633611 
0.0956 0.468587 0.618993 
0.0931 0.465663 0.644765 
0.0969 0.497238 0.667893 
0.0969 0.49628 0.686748 
0.0939 0.464201 0.665996 
0.0995 0.51978 0.701717 
0.0999 0.523292 0.686001 
0.1016 0.527215 0.665295 
0.1031 0.558265 0.681042 
0.1017 0.553051 0.70332 
0.1087 0.593514 0.72068 
0.1018 0.547681 0.719582 
0.1106 0.601486 0.695011 
0.1198 0.604691 0.676104 
0.1142 0.559243 0.661955 
0.1106 0.527517 0.644492 
0.1071 0.500334 0.620467 
0.0993 0.499595 0.644543 
0.1027 0.470637 0.595916 
0.0986 0.452529 0.585813 
0.0869 0.367399 0.563309 
0.0887 0.408538 0.566335 
0.0896 0.367482 0.562062 
0.0913 0.408419 0.565108 
0.0975 0.43697 0.570097 
0.2248 0.433807 0.571046 
0.0936 0.324917 0.560294 
0.0911 0.324673 0.561541 
0.106 0.28433 0.561366 
0.1077 0.284876 0.560067 
0.1267 0.25647 0.559247 
0.1258 0.255814 0.560515 
0.141 0.237477 0.559644 
0.1811 0.223922 0.560763 
0.1526 0.22464 0.560392 
0.1742 0.21634 0.561294 
0.1645 0.21646 0.561366 
0.1566 0.609353 0.565278 
0.1566 0.609478 0.563015 
0.1832 0.604145 0.56534 
0.1833 0.604264 0.563108 
0.1871 0.626463 0.563984 
0.1886 0.614843 0.563258 
0.1819 0.634273 0.564412 
0.1751 0.63789 0.564484 
0.1695 0.637952 0.564464 
0.1634 0.635262 0.564237 
0.1836 0.604878 0.562541 
0.1594 0.630475 0.563861 
0.1562 0.622622 0.563216 
0.1564 0.610238 0.562412 
3 0 1 2 
3 0 3 1 
3 0 4 3 
3 4 0 5 
3 2 5 0 
3 5 2 6 
3 7 6 2 
3 6 7 8 
3 9 8 7 
3 8 9 10 
3 11 10 9 
3 10 11 12 
3 13 12 11 
3 12 13 14 
3 15 14 13 
3 14 15 16 
3 17 16 15 
3 16 17 18 
3 19 18 17 
3 19 17 20 
3 21 20 17 
3 21 22 20 
3 21 23 22 
3 23 21 15 
3 17 15 21 
3 23 15 24 
3 13 24 15 
3 13 11 24 
3 25 24 11 
3 25 26 24 
3 26 25 27 
3 28 27 25 
3 27 28 29 
3 30 29 28 
3 30 31 29 
3 30 7 31 
3 7 30 9 
3 28 9 30 
3 28 25 9 
3 11 9 25 
3 2 31 7 
3 31 2 1 
3 31 1 32 
3 33 32 1 
3 32 33 34 
3 35 34 33 
3 35 36 34 
3 36 35 37 
3 38 37 35 
3 37 38 39 
3 40 39 38 
3 40 41 39 
3 40 42 41 
3 38 42 40 
3 38 43 42 
3 38 35 43 
3 33 43 35 
3 43 33 44 
3 1 44 33 
3 44 1 3 
3 3 45 44 
3 3 46 45 
3 46 3 4 
3 46 4 47 
3 48 47 4 
3 48 49 47 
3 49 48 50 
3 51 50 48 
3 50 51 52 
3 53 52 51 
3 52 53 54 
3 55 54 53 
3 54 55 56 
3 57 56 55 
3 56 57 58 
3 59 58 57 
3 58 59 60 
3 61 60 59 
3 60 61 62 
3 63 62 61 
3 62 63 64 
3 65 64 63 
3 64 65 66 
3 67 66 65 
3 66 67 68 
3 69 68 67 
3 68 69 70 
3 71 70 69 
3 70 71 72 
3 73 72 71 
3 72 73 74 
3 75 74 73 
3 74 75 76 
3 77 76 75 
3 78 76 77 
3 78 77 79 
3 76 78 74 
3 74 78 70 
3 78 80 70 
3 81 80 78 
3 82 80 81 
3 82 83 80 
3 83 82 84 
3 81 84 82 
3 84 81 85 
3 86 85 81 
3 85 86 79 
3 78 79 86 
3 86 81 78 
3 84 85 87 
3 88 80 83 
3 80 88 89 
3 90 89 88 
3 89 90 91 
3 92 91 90 
3 91 92 93 
3 94 93 92 
3 93 94 95 
3 96 95 94 
3 95 96 97 
3 98 97 96 
3 97 98 99 
3 47 99 98 
3 99 47 49 
3 49 50 99 
3 99 50 95 
3 95 50 80 
3 80 50 70 
3 62 70 50 
3 66 70 62 
3 68 70 66 
3 64 66 62 
3 54 62 50 
3 58 62 54 
3 60 62 58 
3 56 58 54 
3 52 54 50 
3 91 95 80 
3 93 95 91 
3 89 91 80 
3 97 99 95 
3 47 98 46 
3 100 46 98 
3 100 45 46 
3 45 100 101 
3 102 101 100 
3 101 102 103 
3 104 103 102 
3 104 105 103 
3 104 94 105 
3 104 102 94 
3 96 94 102 
3 102 100 96 
3 98 96 100 
3 92 105 94 
3 106 103 105 
3 106 107 103 
3 106 108 107 
3 108 106 109 
3 105 109 106 
3 108 109 110 
3 111 110 109 
3 110 111 112 
3 113 112 111 
3 112 113 114 
3 87 114 113 
3 114 87 115 
3 116 115 87 
3 115 116 117 
3 118 117 116 
3 117 118 119 
3 120 119 118 
3 119 120 121 
3 122 121 120 
3 121 122 123 
3 124 123 122 
3 123 124 125 
3 126 125 124 
3 125 126 127 
3 128 127 126 
3 125 127 129 
3 130 129 127 
3 129 130 131 
3 132 131 130 
3 132 133 131 
3 133 132 134 
3 135 134 132 
3 135 136 134 
3 135 137 136 
3 135 132 137 
3 130 137 132 
3 130 127 137 
3 138 137 127 
3 137 138 20 
3 19 20 138 
3 20 136 137 
3 136 20 22 
3 22 139 136 
3 22 140 139 
3 140 22 23 
3 140 23 141 
3 24 141 23 
3 141 24 26 
3 26 142 141 
3 26 27 142 
3 143 142 27 
3 142 143 144 
3 145 144 143 
3 144 145 146 
3 147 146 145 
3 146 147 148 
3 149 148 147 
3 149 150 148 
3 150 149 151 
3 152 151 149 
3 151 152 153 
3 154 153 152 
3 153 154 155 
3 156 155 154 
3 155 156 157 
3 158 157 156 
3 157 158 159 
3 160 159 158 
3 159 160 161 
3 162 161 160 
3 161 162 163 
3 164 163 162 
3 163 164 165 
3 166 165 164 
3 165 166 167 
3 168 167 166 
3 167 168 169 
3 170 169 168 
3 170 168 171 
3 172 171 168 
3 171 172 173 
3 174 173 172 
3 174 175 173 
3 175 174 176 
3 177 176 174 
3 176 177 178 
3 179 178 177 
3 178 179 41 
3 180 41 179 
3 180 39 41 
3 39 180 181 
3 182 181 180 
3 182 162 181 
3 182 183 162 
3 183 182 179 
3 180 179 182 
3 179 177 183 
3 184 183 177 
3 183 184 164 
3 166 164 184 
3 184 172 166 
3 172 184 174 
3 177 174 184 
3 168 166 172 
3 164 162 183 
3 160 181 162 
3 181 160 185 
3 158 185 160 
3 158 156 185 
3 186 185 156 
3 185 186 37 
3 36 37 186 
3 186 187 36 
3 187 186 154 
3 156 154 186 
3 154 152 187 
3 188 187 152 
3 188 189 187 
3 188 147 189 
3 147 188 149 
3 152 149 188 
3 145 189 147 
3 145 143 189 
3 190 189 143 
3 189 190 191 
3 34 191 190 
3 191 34 36 
3 191 36 187 
3 191 187 189 
3 34 190 32 
3 29 32 190 
3 32 29 31 
3 190 143 29 
3 27 29 143 
3 37 39 185 
3 181 185 39 
3 178 41 192 
3 193 192 41 
3 193 194 192 
3 194 193 195 
3 195 193 42 
3 193 41 42 
3 195 42 43 
3 43 44 195 
3 196 195 44 
3 196 197 195 
3 196 45 197 
3 196 44 45 
3 101 197 45 
3 197 101 198 
3 103 198 101 
3 198 103 107 
3 198 107 199 
3 200 199 107 
3 200 201 199 
3 201 200 202 
3 203 202 200 
3 203 204 202 
3 204 203 205 
3 206 205 203 
3 205 206 207 
3 208 207 206 
3 208 209 207 
3 209 208 210 
3 211 210 208 
3 211 110 210 
3 211 212 110 
3 211 208 212 
3 206 212 208 
3 206 200 212 
3 203 200 206 
3 107 212 200 
3 212 107 108 
3 108 110 212 
3 112 210 110 
3 210 112 213 
3 114 213 112 
3 213 114 214 
3 115 214 114 
3 214 115 215 
3 117 215 115 
3 215 117 216 
3 119 216 117 
3 119 121 216 
3 217 216 121 
3 217 218 216 
3 217 219 218 
3 219 217 123 
3 121 123 217 
3 123 125 219 
3 129 219 125 
3 219 129 220 
3 131 220 129 
3 220 131 221 
3 222 221 131 
3 221 222 223 
3 224 223 222 
3 223 224 225 
3 226 225 224 
3 225 226 227 
3 228 227 226 
3 228 229 227 
3 229 228 230 
3 231 230 228 
3 230 231 232 
3 233 232 231 
3 232 233 234 
3 235 234 233 
3 234 235 236 
3 237 236 235 
3 236 237 238 
3 239 238 237 
3 239 240 238 
3 240 239 241 
3 242 241 239 
3 242 243 241 
3 242 244 243 
3 244 242 237 
3 239 237 242 
3 237 235 244 
3 245 244 235 
3 244 245 246 
3 247 246 245 
3 247 248 246 
3 248 247 134 
3 249 134 247 
3 134 249 133 
3 250 133 249 
3 250 224 133 
3 224 250 226 
3 251 226 250 
3 226 251 228 
3 231 228 251 
3 251 252 231 
3 251 250 252 
3 249 252 250 
3 249 247 252 
3 245 252 247 
3 233 231 252 
3 222 133 224 
3 222 131 133 
3 248 134 136 
3 248 136 139 
3 139 246 248 
3 139 253 246 
3 253 139 140 
3 253 140 254 
3 141 254 140 
3 254 141 142 
3 142 144 254 
3 255 254 144 
3 255 243 254 
3 255 241 243 
3 255 144 241 
3 146 241 144 
3 241 146 240 
3 148 240 146 
3 240 148 256 
3 257 256 148 
3 258 256 257 
3 258 259 256 
3 259 258 260 
3 261 260 258 
3 260 261 262 
3 263 262 261 
3 262 263 264 
3 265 264 263 
3 264 265 266 
3 267 266 265 
3 266 267 268 
3 269 268 267 
3 268 269 270 
3 271 270 269 
3 270 271 272 
3 229 272 271 
3 272 229 273 
3 230 273 229 
3 273 230 274 
3 232 274 230 
3 274 232 275 
3 234 275 232 
3 234 236 275 
3 276 275 236 
3 276 277 275 
3 277 276 278 
3 279 278 276 
3 278 279 280 
3 281 280 279 
3 280 281 282 
3 259 282 281 
3 282 259 283 
3 260 283 259 
3 283 260 284 
3 262 284 260 
3 284 262 285 
3 264 285 262 
3 285 264 286 
3 266 286 264 
3 286 266 287 
3 268 287 266 
3 287 268 288 
3 270 288 268 
3 270 272 288 
3 289 288 272 
3 288 289 290 
3 291 290 289 
3 290 291 292 
3 293 292 291 
3 291 294 293 
3 294 291 295 
3 289 295 291 
3 295 289 273 
3 272 273 289 
3 273 274 295 
3 296 295 274 
3 295 296 294 
3 297 294 296 
3 294 297 298 
3 299 298 297 
3 297 300 299 
3 300 297 301 
3 296 301 297 
3 301 296 275 
3 274 275 296 
3 301 275 277 
3 301 277 300 
3 302 300 277 
3 300 302 303 
3 304 303 302 
3 302 305 304 
3 305 302 278 
3 277 278 302 
3 278 280 305 
3 306 305 280 
3 305 306 307 
3 308 307 306 
3 308 306 309 
3 310 309 306 
3 310 311 309 
3 310 282 311 
3 310 306 282 
3 280 282 306 
3 283 311 282 
3 312 309 311 
3 311 313 312 
3 314 312 313 
3 314 313 315 
3 316 315 313 
3 315 316 317 
3 318 317 316 
3 317 318 319 
3 320 319 318 
3 320 290 319 
3 320 287 290 
3 287 320 286 
3 318 286 320 
3 286 318 285 
3 316 285 318 
3 285 316 284 
3 313 284 316 
3 284 313 283 
3 288 290 287 
3 292 319 290 
3 307 304 305 
3 303 299 300 
3 298 293 294 
3 281 256 259 
3 256 281 238 
3 279 238 281 
3 279 276 238 
3 236 238 276 
3 256 238 240 
3 271 227 229 
3 227 271 321 
3 322 321 271 
3 321 322 323 
3 324 323 322 
3 323 324 325 
3 326 325 324 
3 325 326 327 
3 328 327 326 
3 327 328 329 
3 330 329 328 
3 329 330 331 
3 332 331 330 
3 331 332 333 
3 334 333 332 
3 334 335 333 
3 334 336 335 
3 334 332 336 
3 337 336 332 
3 337 338 336 
3 337 339 338 
3 339 337 330 
3 332 330 337 
3 330 328 339 
3 340 339 328 
3 339 340 341 
3 342 341 340 
3 342 343 341 
3 343 342 344 
3 345 344 342 
3 345 346 344 
3 345 347 346 
3 345 342 347 
3 340 347 342 
3 347 340 326 
3 328 326 340 
3 326 324 347 
3 348 347 324 
3 348 346 347 
3 346 348 349 
3 322 349 348 
3 322 348 324 
3 346 349 350 
3 351 350 349 
3 350 351 352 
3 257 352 351 
3 150 352 257 
3 150 151 352 
3 353 352 151 
3 353 344 352 
3 344 353 343 
3 354 343 353 
3 343 354 355 
3 356 355 354 
3 356 357 355 
3 357 356 157 
3 155 157 356 
3 356 354 155 
3 153 155 354 
3 354 353 153 
3 151 153 353 
3 157 159 357 
3 358 357 159 
3 358 359 357 
3 359 358 360 
3 361 360 358 
3 360 361 362 
3 363 362 361 
3 362 363 364 
3 365 364 363 
3 364 365 366 
3 367 366 365 
3 366 367 368 
3 369 368 367 
3 369 367 169 
3 167 169 367 
3 367 365 167 
3 165 167 365 
3 365 363 165 
3 163 165 363 
3 363 361 163 
3 161 163 361 
3 361 358 161 
3 159 161 358 
3 169 370 369 
3 371 369 370 
3 370 372 371 
3 373 371 372 
3 372 374 373 
3 375 373 374 
3 375 374 376 
3 377 376 374 
3 377 378 376 
3 379 376 378 
3 378 380 379 
3 378 381 380 
3 382 380 381 
3 380 382 383 
3 384 383 382 
3 383 384 385 
3 386 385 384 
3 385 386 387 
3 388 387 386 
3 388 389 387 
3 389 388 390 
3 391 390 388 
3 390 391 392 
3 393 392 391 
3 392 393 205 
3 204 205 393 
3 204 393 394 
3 395 394 393 
3 394 395 396 
3 397 396 395 
3 396 397 398 
3 399 398 397 
3 398 399 400 
3 401 400 399 
3 400 401 402 
3 403 402 401 
3 402 403 404 
3 405 404 403 
3 404 405 406 
3 407 406 405 
3 406 407 408 
3 409 408 407 
3 409 173 408 
3 173 409 171 
3 410 171 409 
3 409 407 410 
3 411 410 407 
3 411 407 412 
3 405 412 407 
3 405 403 412 
3 413 412 403 
3 403 401 413 
3 414 413 401 
3 401 399 414 
3 415 414 399 
3 414 415 381 
3 382 381 415 
3 415 416 382 
3 416 415 397 
3 399 397 415 
3 397 395 416 
3 417 416 395 
3 416 417 384 
3 386 384 417 
3 417 391 386 
3 391 417 393 
3 395 393 417 
3 388 386 391 
3 384 382 416 
3 418 408 173 
3 408 418 419 
3 420 419 418 
3 420 421 419 
3 421 420 422 
3 423 422 420 
3 422 423 424 
3 425 424 423 
3 424 425 426 
3 192 426 425 
3 426 192 194 
3 194 199 426 
3 194 197 199 
3 194 195 197 
3 198 199 197 
3 427 426 199 
3 426 427 424 
3 428 424 427 
3 424 428 422 
3 429 422 428 
3 422 429 421 
3 430 421 429 
3 430 431 421 
3 430 432 431 
3 432 430 433 
3 429 433 430 
3 433 429 434 
3 428 434 429 
3 434 428 201 
3 427 201 428 
3 427 199 201 
3 201 202 434 
3 435 434 202 
3 434 435 433 
3 436 433 435 
3 433 436 432 
3 437 432 436 
3 432 437 438 
3 439 438 437 
3 439 404 438 
3 402 404 439 
3 402 439 400 
3 437 400 439 
3 400 437 398 
3 436 398 437 
3 398 436 396 
3 435 396 436 
3 396 435 394 
3 202 394 435 
3 394 202 204 
3 404 406 438 
3 431 438 406 
3 438 431 432 
3 431 406 419 
3 431 419 421 
3 192 425 178 
3 176 178 425 
3 425 423 176 
3 175 176 423 
3 423 420 175 
3 418 175 420 
3 418 173 175 
3 205 207 392 
3 440 392 207 
3 440 441 392 
3 440 442 441 
3 440 207 442 
3 443 442 207 
3 442 443 444 
3 445 444 443 
3 445 446 444 
3 446 445 447 
3 448 447 445 
3 448 213 447 
3 448 209 213 
3 209 448 443 
3 445 443 448 
3 443 207 209 
3 210 213 209 
3 214 447 213 
3 214 215 447 
3 449 447 215 
3 447 449 446 
3 450 446 449 
3 450 451 446 
3 451 450 452 
3 453 452 450 
3 453 454 452 
3 454 453 218 
3 455 218 453 
3 455 216 218 
3 455 449 216 
3 455 453 449 
3 450 449 453 
3 215 216 449 
3 454 218 221 
3 220 221 218 
3 220 218 219 
3 454 221 456 
3 223 456 221 
3 456 223 457 
3 225 457 223 
3 457 225 321 
3 227 321 225 
3 321 323 457 
3 458 457 323 
3 457 458 456 
3 452 456 458 
3 456 452 454 
3 458 459 452 
3 459 458 325 
3 323 325 458 
3 325 327 459 
3 460 459 327 
3 460 461 459 
3 461 460 444 
3 462 444 460 
3 444 462 442 
3 463 442 462 
3 463 441 442 
3 441 463 333 
3 331 333 463 
3 463 462 331 
3 329 331 462 
3 462 460 329 
3 327 329 460 
3 333 389 441 
3 389 333 335 
3 335 387 389 
3 387 335 464 
3 465 464 335 
3 464 465 466 
3 467 466 465 
3 467 359 466 
3 467 468 359 
3 467 465 468 
3 336 468 465 
3 468 336 338 
3 468 338 469 
3 355 469 338 
3 469 355 357 
3 469 357 359 
3 469 359 468 
3 355 338 341 
3 341 338 339 
3 355 341 343 
3 465 335 336 
3 360 466 359 
3 360 362 466 
3 470 466 362 
3 466 470 464 
3 471 464 470 
3 464 471 387 
3 385 387 471 
3 471 472 385 
3 472 471 473 
3 470 473 471 
3 473 470 364 
3 362 364 470 
3 364 366 473 
3 474 473 366 
3 473 474 472 
3 475 472 474 
3 472 475 383 
3 380 383 475 
3 475 379 380 
3 379 475 476 
3 474 476 475 
3 476 474 368 
3 366 368 474 
3 368 477 476 
3 478 476 477 
3 477 479 478 
3 480 478 479 
3 383 385 472 
3 390 441 389 
3 390 392 441 
3 461 444 446 
3 461 446 451 
3 451 459 461 
3 451 452 459 
3 350 352 344 
3 350 344 346 
3 257 148 150 
3 349 265 351 
3 263 351 265 
3 322 271 269 
3 253 254 243 
3 243 246 253 
3 246 243 244 
3 235 233 245 
3 126 124 71 
3 122 120 75 
3 77 75 120 
3 75 73 122 
3 111 109 88 
3 90 88 109 
3 72 74 70 
3 61 14 63 
3 16 63 14 
3 57 55 10 
3 8 10 55 
3 55 53 8 
3 481 482 483 
3 484 483 482 
3 485 486 487 
3 487 486 488 
3 488 486 489 
3 489 486 490 
3 490 486 491 
3 492 490 491 
3 493 492 491 
3 493 491 494 
