ply
format ascii 1.0
comment VCGLIB generated
element vertex 290
property float x
property float y
property float z
element face 576
property list uchar int vertex_indices
end_header
68.9464 1.00535 49.963 
79.7022 1.00535 30.1167 
76.9507 21.9054 30.1167 
66.5613 19.1216 49.963 
66.5613 -17.1109 49.963 
76.9507 -19.8947 30.1167 
59.5687 -33.9926 49.963 
68.8835 -39.3705 30.1167 
48.4451 -48.4892 49.963 
56.0506 -56.0947 30.1167 
33.9485 -59.6128 49.963 
39.3264 -68.9276 30.1167 
17.0668 -66.6055 49.963 
19.8506 -76.9948 30.1167 
-1.04946 -68.9905 49.963 
-1.04946 -79.7463 30.1167 
-19.1657 -66.6055 49.963 
-21.9495 -76.9948 30.1167 
-36.0474 -59.6128 49.963 
-41.4253 -68.9276 30.1167 
-50.544 -48.4892 49.963 
-58.1495 -56.0947 30.1167 
-61.6677 -33.9926 49.963 
-70.9825 -39.3705 30.1167 
-68.6603 -17.1109 49.963 
-79.0496 -19.8947 30.1167 
-71.0453 1.00535 49.963 
-81.8011 1.00535 30.1167 
-68.6603 19.1216 49.963 
-79.0496 21.9054 30.1167 
-61.6677 36.0033 49.963 
-70.9825 41.3812 30.1167 
-50.544 50.4999 49.963 
-58.1495 58.1054 30.1167 
-36.0474 61.6235 49.963 
-41.4253 70.9383 30.1167 
-19.1657 68.6162 49.963 
-21.9495 79.0055 30.1167 
-1.04946 71.0012 49.963 
-1.04946 81.757 30.1167 
17.0668 68.6162 49.963 
19.8506 79.0055 30.1167 
33.9485 61.6235 49.963 
39.3264 70.9383 30.1167 
48.4451 50.4999 49.963 
56.0506 58.1054 30.1167 
59.5687 36.0033 49.963 
68.8835 41.3812 30.1167 
82.0244 23.2649 8.16287 
73.4325 44.0075 8.16287 
84.9549 1.00535 8.16287 
82.0244 -21.2542 8.16287 
73.4325 -41.9968 8.16287 
59.7648 -59.8089 8.16287 
41.9527 -73.4766 8.16287 
21.2101 -82.0685 8.16287 
-1.04946 -84.999 8.16287 
-23.309 -82.0685 8.16287 
-44.0517 -73.4766 8.16287 
-61.8637 -59.8089 8.16287 
-75.5314 -41.9968 8.16287 
-84.1233 -21.2542 8.16287 
-87.0538 1.00535 8.16287 
-84.1233 23.2649 8.16287 
-75.5314 44.0075 8.16287 
-61.8637 61.8196 8.16287 
-44.0517 75.4873 8.16287 
-23.309 84.0792 8.16287 
-1.04946 87.0097 8.16287 
21.2101 84.0792 8.16287 
41.9527 75.4873 8.16287 
59.7648 61.8196 8.16287 
72.9057 43.7034 -14.4024 
59.3347 61.3895 -14.4024 
81.4368 23.1075 -14.4024 
84.3466 1.00535 -14.4024 
81.4368 -21.0968 -14.4024 
72.9057 -41.6927 -14.4024 
59.3347 -59.3788 -14.4024 
41.6486 -72.9498 -14.4024 
21.0527 -81.4809 -14.4024 
-1.04946 -84.3907 -14.4024 
-23.1516 -81.4809 -14.4024 
-43.7475 -72.9498 -14.4024 
-61.4336 -59.3788 -14.4024 
-75.0046 -41.6927 -14.4024 
-83.5357 -21.0968 -14.4024 
-86.4455 1.00535 -14.4024 
-83.5357 23.1075 -14.4024 
-75.0046 43.7034 -14.4024 
-61.4336 61.3895 -14.4024 
-43.7475 74.9605 -14.4024 
-23.1516 83.4916 -14.4024 
-1.04946 86.4014 -14.4024 
21.0527 83.4916 -14.4024 
41.6486 74.9605 -14.4024 
54.7894 56.8442 -36.0414 
38.4346 69.3937 -36.0414 
67.3389 40.4894 -36.0414 
75.2279 21.4438 -36.0414 
77.9186 1.00535 -36.0414 
75.2279 -19.4331 -36.0414 
67.3389 -38.4787 -36.0414 
54.7894 -54.8335 -36.0414 
38.4346 -67.383 -36.0414 
19.389 -75.272 -36.0414 
-1.04946 -77.9628 -36.0414 
-21.4879 -75.272 -36.0414 
-40.5335 -67.383 -36.0414 
-56.8883 -54.8335 -36.0414 
-69.4378 -38.4787 -36.0414 
-77.3268 -19.4331 -36.0414 
-80.0176 1.00535 -36.0414 
-77.3268 21.4438 -36.0414 
-69.4378 40.4894 -36.0414 
-56.8883 56.8442 -36.0414 
-40.5335 69.3937 -36.0414 
-21.4879 77.2827 -36.0414 
-1.04946 79.9735 -36.0414 
19.389 77.2827 -36.0414 
32.5299 59.1664 -55.2793 
16.3325 65.8756 -55.2793 
46.4389 48.4937 -55.2793 
57.1116 34.5847 -55.2793 
63.8208 18.3873 -55.2793 
66.1092 1.00535 -55.2793 
63.8208 -16.3766 -55.2793 
57.1116 -32.574 -55.2793 
46.4389 -46.483 -55.2793 
32.5299 -57.1557 -55.2793 
16.3325 -63.8649 -55.2793 
-1.04946 -66.1533 -55.2793 
-18.4314 -63.8649 -55.2793 
-34.6288 -57.1557 -55.2793 
-48.5378 -46.483 -55.2793 
-59.2105 -32.574 -55.2793 
-65.9197 -16.3766 -55.2793 
-68.2081 1.00535 -55.2793 
-65.9197 18.3873 -55.2793 
-59.2105 34.5847 -55.2793 
-48.5378 48.4937 -55.2793 
-34.6288 59.1664 -55.2793 
-18.4314 65.8756 -55.2793 
-1.04946 68.164 -55.2793 
12.0914 50.0477 -70.8052 
-1.04946 51.7777 -70.8052 
24.3367 44.9755 -70.8052 
34.852 36.9069 -70.8052 
42.9207 26.3915 -70.8052 
47.9929 14.1462 -70.8052 
49.7229 1.00535 -70.8052 
47.9929 -12.1355 -70.8052 
42.9207 -24.3808 -70.8052 
34.852 -34.8961 -70.8052 
24.3367 -42.9648 -70.8052 
12.0914 -48.037 -70.8052 
-1.04946 -49.767 -70.8052 
-14.1903 -48.037 -70.8052 
-26.4357 -42.9648 -70.8052 
-36.951 -34.8961 -70.8052 
-45.0196 -24.3808 -70.8052 
-50.0918 -12.1355 -70.8052 
-51.8218 1.00535 -70.8052 
-50.0918 14.1462 -70.8052 
-45.0196 26.3915 -70.8052 
-36.951 36.9069 -70.8052 
-26.4357 44.9755 -70.8052 
-14.1903 50.0477 -70.8052 
-1.04946 31.9315 -81.561 
-9.05372 30.8777 -81.561 
6.9548 30.8777 -81.561 
14.4136 27.7881 -81.561 
20.8186 22.8734 -81.561 
25.7333 16.4684 -81.561 
28.8229 9.00962 -81.561 
29.8766 1.00535 -81.561 
28.8229 -6.99891 -81.561 
25.7333 -14.4577 -81.561 
20.8186 -20.8627 -81.561 
14.4136 -25.7774 -81.561 
6.9548 -28.867 -81.561 
-1.04946 -29.9207 -81.561 
-9.05372 -28.867 -81.561 
-16.5125 -25.7774 -81.561 
-22.9175 -20.8627 -81.561 
-27.8322 -14.4577 -81.561 
-30.9218 -6.99891 -81.561 
-31.9756 1.00535 -81.561 
-30.9218 9.00962 -81.561 
-27.8322 16.4684 -81.561 
-22.9175 22.8734 -81.561 
-16.5125 27.7881 -81.561 
-3.37165 9.67188 -86.8138 
-5.53558 8.77555 -86.8138 
-1.04946 9.9776 -86.8138 
1.27273 9.67188 -86.8138 
3.43666 8.77555 -86.8138 
5.29488 7.34969 -86.8138 
6.72073 5.49148 -86.8138 
7.61707 3.32754 -86.8138 
7.92279 1.00535 -86.8138 
7.61707 -1.31683 -86.8138 
6.72073 -3.48077 -86.8138 
5.29488 -5.33898 -86.8138 
3.43666 -6.76484 -86.8138 
1.27273 -7.66117 -86.8138 
-1.04946 -7.96689 -86.8138 
-3.37165 -7.66117 -86.8138 
-5.53558 -6.76484 -86.8138 
-7.3938 -5.33898 -86.8138 
-8.81965 -3.48077 -86.8138 
-9.71598 -1.31683 -86.8138 
-10.0217 1.00535 -86.8138 
-9.71598 3.32754 -86.8138 
-8.81965 5.49148 -86.8138 
-7.3938 7.34969 -86.8138 
-1.04946 1.00535 -86.5719 
51.5645 15.1032 66.3492 
46.1229 28.2403 66.3492 
53.4205 1.00535 66.3492 
51.5645 -13.0925 66.3492 
46.1229 -26.2296 66.3492 
37.4666 -37.5107 66.3492 
26.1855 -46.167 66.3492 
13.0484 -51.6086 66.3492 
-1.04946 -53.4646 66.3492 
-15.1473 -51.6086 66.3492 
-28.2844 -46.167 66.3492 
-39.5655 -37.5107 66.3492 
-48.2218 -26.2296 66.3492 
-53.6634 -13.0925 66.3492 
-55.5194 1.00535 66.3492 
-53.6634 15.1032 66.3492 
-48.2218 28.2403 66.3492 
-39.5655 39.5214 66.3492 
-28.2844 48.1777 66.3492 
-15.1473 53.6193 66.3492 
-1.04946 55.4753 66.3492 
13.0484 53.6193 66.3492 
26.1855 48.1777 66.3492 
37.4666 39.5214 66.3492 
29.4623 18.6214 78.1587 
23.8633 25.9181 78.1587 
32.982 10.1241 78.1587 
34.1825 1.00535 78.1587 
32.982 -8.11336 78.1587 
29.4623 -16.6106 78.1587 
23.8633 -23.9074 78.1587 
16.5665 -29.5065 78.1587 
8.06925 -33.0261 78.1587 
-1.04946 -34.2266 78.1587 
-10.1682 -33.0261 78.1587 
-18.6655 -29.5065 78.1587 
-25.9622 -23.9074 78.1587 
-31.5613 -16.6106 78.1587 
-35.081 -8.11336 78.1587 
-36.2815 1.00535 78.1587 
-35.081 10.1241 78.1587 
-31.5613 18.6214 78.1587 
-25.9622 25.9181 78.1587 
-18.6655 31.5172 78.1587 
-10.1682 35.0369 78.1587 
-1.04946 36.2374 78.1587 
8.06925 35.0369 78.1587 
16.5665 31.5172 78.1587 
8.56228 10.6171 84.5867 
5.74706 12.7773 84.5867 
10.7225 7.80188 84.5867 
12.0804 4.52349 84.5867 
12.5436 1.00535 84.5867 
12.0804 -2.51279 84.5867 
10.7225 -5.79117 84.5867 
8.56228 -8.60638 84.5867 
5.74706 -10.7666 84.5867 
2.46868 -12.1245 84.5867 
-1.04946 -12.5877 84.5867 
-4.5676 -12.1245 84.5867 
-7.84598 -10.7666 84.5867 
-10.6612 -8.60638 84.5867 
-12.8214 -5.79117 84.5867 
-14.1793 -2.51279 84.5867 
-14.6425 1.00535 84.5867 
-14.1793 4.52349 84.5867 
-12.8214 7.80188 84.5867 
-10.6612 10.6171 84.5867 
-7.84598 12.7773 84.5867 
-4.5676 14.1352 84.5867 
-1.04946 14.5984 84.5867 
2.46868 14.1352 84.5867 
-1.04946 1.00535 84.9531 
3 0 1 2 
3 0 2 3 
3 4 5 1 
3 4 1 0 
3 6 7 5 
3 6 5 4 
3 8 9 7 
3 8 7 6 
3 10 11 9 
3 10 9 8 
3 12 13 11 
3 12 11 10 
3 14 15 13 
3 14 13 12 
3 16 17 15 
3 16 15 14 
3 18 19 17 
3 18 17 16 
3 20 21 19 
3 20 19 18 
3 22 23 21 
3 22 21 20 
3 24 25 23 
3 24 23 22 
3 26 27 25 
3 26 25 24 
3 28 29 27 
3 28 27 26 
3 30 31 29 
3 30 29 28 
3 32 33 31 
3 32 31 30 
3 34 35 33 
3 34 33 32 
3 36 37 35 
3 36 35 34 
3 38 39 37 
3 38 37 36 
3 40 41 39 
3 40 39 38 
3 42 43 41 
3 42 41 40 
3 44 45 43 
3 44 43 42 
3 46 47 45 
3 46 45 44 
3 3 2 47 
3 3 47 46 
3 2 48 49 
3 2 49 47 
3 1 50 48 
3 1 48 2 
3 5 51 50 
3 5 50 1 
3 7 52 51 
3 7 51 5 
3 9 53 52 
3 9 52 7 
3 11 54 53 
3 11 53 9 
3 13 55 54 
3 13 54 11 
3 15 56 55 
3 15 55 13 
3 17 57 56 
3 17 56 15 
3 19 58 57 
3 19 57 17 
3 21 59 58 
3 21 58 19 
3 23 60 59 
3 23 59 21 
3 25 61 60 
3 25 60 23 
3 27 62 61 
3 27 61 25 
3 29 63 62 
3 29 62 27 
3 31 64 63 
3 31 63 29 
3 33 65 64 
3 33 64 31 
3 35 66 65 
3 35 65 33 
3 37 67 66 
3 37 66 35 
3 39 68 67 
3 39 67 37 
3 41 69 68 
3 41 68 39 
3 43 70 69 
3 43 69 41 
3 45 71 70 
3 45 70 43 
3 47 49 71 
3 47 71 45 
3 49 72 73 
3 49 73 71 
3 48 74 72 
3 48 72 49 
3 50 75 74 
3 50 74 48 
3 51 76 75 
3 51 75 50 
3 52 77 76 
3 52 76 51 
3 53 78 77 
3 53 77 52 
3 54 79 78 
3 54 78 53 
3 55 80 79 
3 55 79 54 
3 56 81 80 
3 56 80 55 
3 57 82 81 
3 57 81 56 
3 58 83 82 
3 58 82 57 
3 59 84 83 
3 59 83 58 
3 60 85 84 
3 60 84 59 
3 61 86 85 
3 61 85 60 
3 62 87 86 
3 62 86 61 
3 63 88 87 
3 63 87 62 
3 64 89 88 
3 64 88 63 
3 65 90 89 
3 65 89 64 
3 66 91 90 
3 66 90 65 
3 67 92 91 
3 67 91 66 
3 68 93 92 
3 68 92 67 
3 69 94 93 
3 69 93 68 
3 70 95 94 
3 70 94 69 
3 71 73 95 
3 71 95 70 
3 73 96 97 
3 73 97 95 
3 72 98 96 
3 72 96 73 
3 74 99 98 
3 74 98 72 
3 75 100 99 
3 75 99 74 
3 76 101 100 
3 76 100 75 
3 77 102 101 
3 77 101 76 
3 78 103 102 
3 78 102 77 
3 79 104 103 
3 79 103 78 
3 80 105 104 
3 80 104 79 
3 81 106 105 
3 81 105 80 
3 82 107 106 
3 82 106 81 
3 83 108 107 
3 83 107 82 
3 84 109 108 
3 84 108 83 
3 85 110 109 
3 85 109 84 
3 86 111 110 
3 86 110 85 
3 87 112 111 
3 87 111 86 
3 88 113 112 
3 88 112 87 
3 89 114 113 
3 89 113 88 
3 90 115 114 
3 90 114 89 
3 91 116 115 
3 91 115 90 
3 92 117 116 
3 92 116 91 
3 93 118 117 
3 93 117 92 
3 94 119 118 
3 94 118 93 
3 95 97 119 
3 95 119 94 
3 97 120 121 
3 97 121 119 
3 96 122 120 
3 96 120 97 
3 98 123 122 
3 98 122 96 
3 99 124 123 
3 99 123 98 
3 100 125 124 
3 100 124 99 
3 101 126 125 
3 101 125 100 
3 102 127 126 
3 102 126 101 
3 103 128 127 
3 103 127 102 
3 104 129 128 
3 104 128 103 
3 105 130 129 
3 105 129 104 
3 106 131 130 
3 106 130 105 
3 107 132 131 
3 107 131 106 
3 108 133 132 
3 108 132 107 
3 109 134 133 
3 109 133 108 
3 110 135 134 
3 110 134 109 
3 111 136 135 
3 111 135 110 
3 112 137 136 
3 112 136 111 
3 113 138 137 
3 113 137 112 
3 114 139 138 
3 114 138 113 
3 115 140 139 
3 115 139 114 
3 116 141 140 
3 116 140 115 
3 117 142 141 
3 117 141 116 
3 118 143 142 
3 118 142 117 
3 119 121 143 
3 119 143 118 
3 121 144 145 
3 121 145 143 
3 120 146 144 
3 120 144 121 
3 122 147 146 
3 122 146 120 
3 123 148 147 
3 123 147 122 
3 124 149 148 
3 124 148 123 
3 125 150 149 
3 125 149 124 
3 126 151 150 
3 126 150 125 
3 127 152 151 
3 127 151 126 
3 128 153 152 
3 128 152 127 
3 129 154 153 
3 129 153 128 
3 130 155 154 
3 130 154 129 
3 131 156 155 
3 131 155 130 
3 132 157 156 
3 132 156 131 
3 133 158 157 
3 133 157 132 
3 134 159 158 
3 134 158 133 
3 135 160 159 
3 135 159 134 
3 136 161 160 
3 136 160 135 
3 137 162 161 
3 137 161 136 
3 138 163 162 
3 138 162 137 
3 139 164 163 
3 139 163 138 
3 140 165 164 
3 140 164 139 
3 141 166 165 
3 141 165 140 
3 142 167 166 
3 142 166 141 
3 143 145 167 
3 143 167 142 
3 145 168 169 
3 145 169 167 
3 144 170 168 
3 144 168 145 
3 146 171 170 
3 146 170 144 
3 147 172 171 
3 147 171 146 
3 148 173 172 
3 148 172 147 
3 149 174 173 
3 149 173 148 
3 150 175 174 
3 150 174 149 
3 151 176 175 
3 151 175 150 
3 152 177 176 
3 152 176 151 
3 153 178 177 
3 153 177 152 
3 154 179 178 
3 154 178 153 
3 155 180 179 
3 155 179 154 
3 156 181 180 
3 156 180 155 
3 157 182 181 
3 157 181 156 
3 158 183 182 
3 158 182 157 
3 159 184 183 
3 159 183 158 
3 160 185 184 
3 160 184 159 
3 161 186 185 
3 161 185 160 
3 162 187 186 
3 162 186 161 
3 163 188 187 
3 163 187 162 
3 164 189 188 
3 164 188 163 
3 165 190 189 
3 165 189 164 
3 166 191 190 
3 166 190 165 
3 167 169 191 
3 167 191 166 
3 169 192 193 
3 169 193 191 
3 168 194 192 
3 168 192 169 
3 170 195 194 
3 170 194 168 
3 171 196 195 
3 171 195 170 
3 172 197 196 
3 172 196 171 
3 173 198 197 
3 173 197 172 
3 174 199 198 
3 174 198 173 
3 175 200 199 
3 175 199 174 
3 176 201 200 
3 176 200 175 
3 177 202 201 
3 177 201 176 
3 178 203 202 
3 178 202 177 
3 179 204 203 
3 179 203 178 
3 180 205 204 
3 180 204 179 
3 181 206 205 
3 181 205 180 
3 182 207 206 
3 182 206 181 
3 183 208 207 
3 183 207 182 
3 184 209 208 
3 184 208 183 
3 185 210 209 
3 185 209 184 
3 186 211 210 
3 186 210 185 
3 187 212 211 
3 187 211 186 
3 188 213 212 
3 188 212 187 
3 189 214 213 
3 189 213 188 
3 190 215 214 
3 190 214 189 
3 191 193 215 
3 191 215 190 
3 215 193 216 
3 193 192 216 
3 192 194 216 
3 194 195 216 
3 195 196 216 
3 196 197 216 
3 197 198 216 
3 198 199 216 
3 199 200 216 
3 200 201 216 
3 201 202 216 
3 202 203 216 
3 203 204 216 
3 204 205 216 
3 205 206 216 
3 206 207 216 
3 207 208 216 
3 208 209 216 
3 209 210 216 
3 210 211 216 
3 211 212 216 
3 212 213 216 
3 213 214 216 
3 214 215 216 
3 217 3 46 
3 217 46 218 
3 219 0 3 
3 219 3 217 
3 220 4 0 
3 220 0 219 
3 221 6 4 
3 221 4 220 
3 222 8 6 
3 222 6 221 
3 223 10 8 
3 223 8 222 
3 224 12 10 
3 224 10 223 
3 225 14 12 
3 225 12 224 
3 226 16 14 
3 226 14 225 
3 227 18 16 
3 227 16 226 
3 228 20 18 
3 228 18 227 
3 229 22 20 
3 229 20 228 
3 230 24 22 
3 230 22 229 
3 231 26 24 
3 231 24 230 
3 232 28 26 
3 232 26 231 
3 233 30 28 
3 233 28 232 
3 234 32 30 
3 234 30 233 
3 235 34 32 
3 235 32 234 
3 236 36 34 
3 236 34 235 
3 237 38 36 
3 237 36 236 
3 238 40 38 
3 238 38 237 
3 239 42 40 
3 239 40 238 
3 240 44 42 
3 240 42 239 
3 218 46 44 
3 218 44 240 
3 241 218 240 
3 241 240 242 
3 243 217 218 
3 243 218 241 
3 244 219 217 
3 244 217 243 
3 245 220 219 
3 245 219 244 
3 246 221 220 
3 246 220 245 
3 247 222 221 
3 247 221 246 
3 248 223 222 
3 248 222 247 
3 249 224 223 
3 249 223 248 
3 250 225 224 
3 250 224 249 
3 251 226 225 
3 251 225 250 
3 252 227 226 
3 252 226 251 
3 253 228 227 
3 253 227 252 
3 254 229 228 
3 254 228 253 
3 255 230 229 
3 255 229 254 
3 256 231 230 
3 256 230 255 
3 257 232 231 
3 257 231 256 
3 258 233 232 
3 258 232 257 
3 259 234 233 
3 259 233 258 
3 260 235 234 
3 260 234 259 
3 261 236 235 
3 261 235 260 
3 262 237 236 
3 262 236 261 
3 263 238 237 
3 263 237 262 
3 264 239 238 
3 264 238 263 
3 242 240 239 
3 242 239 264 
3 265 242 264 
3 265 264 266 
3 267 241 242 
3 267 242 265 
3 268 243 241 
3 268 241 267 
3 269 244 243 
3 269 243 268 
3 270 245 244 
3 270 244 269 
3 271 246 245 
3 271 245 270 
3 272 247 246 
3 272 246 271 
3 273 248 247 
3 273 247 272 
3 274 249 248 
3 274 248 273 
3 275 250 249 
3 275 249 274 
3 276 251 250 
3 276 250 275 
3 277 252 251 
3 277 251 276 
3 278 253 252 
3 278 252 277 
3 279 254 253 
3 279 253 278 
3 280 255 254 
3 280 254 279 
3 281 256 255 
3 281 255 280 
3 282 257 256 
3 282 256 281 
3 283 258 257 
3 283 257 282 
3 284 259 258 
3 284 258 283 
3 285 260 259 
3 285 259 284 
3 286 261 260 
3 286 260 285 
3 287 262 261 
3 287 261 286 
3 288 263 262 
3 288 262 287 
3 266 264 263 
3 266 263 288 
3 266 288 289 
3 288 287 289 
3 287 286 289 
3 286 285 289 
3 285 284 289 
3 284 283 289 
3 283 282 289 
3 282 281 289 
3 281 280 289 
3 280 279 289 
3 279 278 289 
3 278 277 289 
3 277 276 289 
3 276 275 289 
3 275 274 289 
3 274 273 289 
3 273 272 289 
3 272 271 289 
3 271 270 289 
3 270 269 289 
3 269 268 289 
3 268 267 289 
3 267 265 289 
3 265 266 289 
